<svg xmlns="http://www.w3.org/2000/svg" version="1.1" xmlns:xlink="http://www.w3.org/1999/xlink" xmlns:svgjs="http://svgjs.dev/svgjs" width="2000" height="772" viewBox="0 0 2000 772"><g transform="matrix(1,0,0,1,-1.2121212121212466,-0.05391760256151201)"><svg viewBox="0 0 396 153" data-background-color="#ffffff" preserveAspectRatio="xMidYMid meet" height="772" width="2000" xmlns="http://www.w3.org/2000/svg" xmlns:xlink="http://www.w3.org/1999/xlink"><g id="tight-bounds" transform="matrix(1,0,0,1,0.2400000000000091,0.010685742476567839)"><svg viewBox="0 0 395.52 152.97862851504686" height="152.97862851504686" width="395.52"><g><svg viewBox="0 0 395.52 152.97862851504686" height="152.97862851504686" width="395.52"><g><svg viewBox="0 0 395.52 152.97862851504686" height="152.97862851504686" width="395.52"><g id="textblocktransform"><svg viewBox="0 0 395.52 152.97862851504686" height="152.97862851504686" width="395.52" id="textblock"><g><svg viewBox="0 0 395.52 152.97862851504686" height="152.97862851504686" width="395.52"><g><svg viewBox="0 0 395.52 152.97862851504686" height="152.97862851504686" width="395.52"><g transform="matrix(1,0,0,1,0,0)"><svg width="395.52" viewBox="4 -38.7 101.34 39.2" height="152.97862851504686" data-palette-color="#000000"><path d="M20.45 0L4 0 4.6-12.15 4-33.5 11.1-34.75 10.4-13 10.75-4.9 21-5.7 20.45 0ZM29.2 0Q26.25 0 24.37-1.88 22.5-3.75 22.5-6.93 22.5-10.1 25.4-12.43 28.3-14.75 32.45-14.75L32.45-14.75 35.85-14.75 35.85-15.6Q35.85-18.05 34.85-18.95 33.85-19.85 31.1-19.85L31.1-19.85Q29.95-19.85 28.37-19.38 26.8-18.9 24.85-17.9L24.85-17.9 23.4-21.85Q25.55-23.35 28.62-24.55 31.7-25.75 33.7-25.75L33.7-25.75Q41.55-25.75 41.55-18.15L41.55-18.15 41.55-8.35Q41.55-5.55 43.3-2.1L43.3-2.1 38 0.15Q36.75-2.25 36.15-4.15L36.15-4.15Q33.4 0 29.2 0L29.2 0ZM31.3-5.1L31.3-5.1Q33.3-5.1 35.85-7.15L35.85-7.15 35.85-10.5Q33.2-11.1 31.55-11.1L31.55-11.1Q28.4-11.1 28.4-8.3L28.4-8.3Q28.4-6.85 29.2-5.98 30-5.1 31.3-5.1ZM62.15-12.65Q62.15-16.1 61.55-17.25 60.95-18.4 58.75-18.4 56.55-18.4 53.75-16.65L53.75-16.65 53.75-13 54.3-1.25 47.6 0 48.2-12.15Q48-18.85 47.1-24.15L47.1-24.15 53.15-25.45Q53.5-22.55 53.65-19.8L53.65-19.8Q54.4-20.8 55.35-21.78 56.3-22.75 58.35-23.98 60.4-25.2 62.67-25.2 64.95-25.2 66.5-23.43 68.05-21.65 68.05-18.6L68.05-18.6 67.75-13 68.3-1 61.55 0.25 62.15-12.65ZM95.09-3.3L89.39 0.5 79.99-13.35 79.99-13 80.54-1.25 73.79 0 74.39-12.15 73.79-37.45 80.64-38.7 79.99-14.55 89.99-25.5 94.69-22.3 85.94-14.1 95.09-3.3ZM97.89-24.2L104.59-25.45 103.99-13 104.54-1.25 97.84 0 98.44-12.15 97.89-24.2ZM97.54-32.77Q97.54-34.45 98.84-35.77 100.14-37.1 101.84-37.1 103.54-37.1 104.44-36.18 105.34-35.25 105.34-33.4 105.34-31.55 104.07-30.23 102.79-28.9 101.12-28.9 99.44-28.9 98.49-30 97.54-31.1 97.54-32.77Z" opacity="1" transform="matrix(1,0,0,1,0,0)" fill="#000000" class="wordmark-text-0" data-fill-palette-color="primary" id="text-0"></path></svg></g></svg></g></svg></g></svg></g></svg></g></svg></g><defs></defs></svg><rect width="395.52" height="152.97862851504686" fill="none" stroke="none" visibility="hidden"></rect></g></svg></g></svg>